<svg width="20" height="22" viewBox="0 0 20 22" fill="none" xmlns="http://www.w3.org/2000/svg">
<path d="M6 1V4" stroke="#333333" stroke-miterlimit="10" stroke-linecap="round" stroke-linejoin="round"/>
<path d="M14 1V4" stroke="#333333" stroke-miterlimit="10" stroke-linecap="round" stroke-linejoin="round"/>
<path d="M1.5 8.08997H18.5" stroke="#333333" stroke-miterlimit="10" stroke-linecap="round" stroke-linejoin="round"/>
<path d="M19 7.5V16C19 19 17.5 21 14 21H6C2.5 21 1 19 1 16V7.5C1 4.5 2.5 2.5 6 2.5H14C17.5 2.5 19 4.5 19 7.5Z" stroke="#333333" stroke-miterlimit="10" stroke-linecap="round" stroke-linejoin="round"/>
<circle cx="6" cy="16" r="1" fill="#333333"/>
<circle cx="10" cy="16" r="1" fill="#333333"/>
<circle cx="14" cy="16" r="1" fill="#333333"/>
<circle cx="6" cy="12" r="1" fill="#333333"/>
<path d="M11 12C11 12.5523 10.5523 13 10 13C9.44772 13 9 12.5523 9 12C9 11.4477 9.44772 11 10 11C10.5523 11 11 11.4477 11 12Z" fill="#333333"/>
<circle cx="14" cy="12" r="1" fill="#333333"/>
</svg>
