<svg width="98" height="98" viewBox="0 0 98 98" fill="none" xmlns="http://www.w3.org/2000/svg">
<circle cx="49" cy="49" r="48.5" stroke="#333333"/>
<path d="M50 39H46C41 39 39 41 39 46V52C39 57 41 59 46 59H52C57 59 59 57 59 52V47M55 39V45M55 45L57 43M55 45L53 43M39.67 55.95L44.6 52.64C45.39 52.11 46.53 52.17 47.24 52.78L47.57 53.07C48.35 53.74 49.61 53.74 50.39 53.07L54.55 49.5C55.33 48.83 56.59 48.83 57.37 49.5L59 50.9M48 45C48 46.1046 47.1046 47 46 47C44.8954 47 44 46.1046 44 45C44 43.8954 44.8954 43 46 43C47.1046 43 48 43.8954 48 45Z" stroke="#333333" stroke-linecap="round" stroke-linejoin="round"/>
</svg>
