<svg width="343" height="343" viewBox="0 0 343 343" fill="none" xmlns="http://www.w3.org/2000/svg">
<path d="M0 171.5C94.7061 171.5 171.5 248.294 171.5 343V171.5H343C248.294 171.5 171.5 94.7061 171.5 0C171.5 94.7061 94.7061 171.5 0 171.5Z" fill="#181818"/>
<path d="M171.5 343C171.5 248.294 94.7061 171.5 0 171.5V343H171.5Z" fill="#C5EC2A"/>
<path d="M171.5 343C266.206 343 343 266.206 343 171.5H171.5V343Z" fill="#C5EC2A"/>
<path d="M171.5 0C171.5 94.7061 94.7061 171.5 0 171.5V0H171.5Z" fill="#C5EC2A"/>
<path d="M343 171.5C248.294 171.5 171.5 94.7061 171.5 0H343V171.5Z" fill="#C5EC2A"/>
</svg>
